Coordinates
version=1
nRows=10
nColumns=46
inDegrees=yes

Units are S.I. units (second, meters, Newtons, ...)
Angles are in degrees.

endheader
time	pelvis_tilt	pelvis_list	pelvis_rotation	pelvis_tx	pelvis_ty	pelvis_tz	bb_angle	bb_tx	bb_ty	bb_tz	hip_flexion_r	hip_adduction_r	hip_rotation_r	knee_angle_r	knee_angle_r_beta	ankle_angle_r	subtalar_angle_r	mtp_angle_r	crank_angle_r	hip_flexion_l	hip_adduction_l	hip_rotation_l	knee_angle_l	knee_angle_l_beta	ankle_angle_l	subtalar_angle_l	mtp_angle_l	crank_angle_l	lumbar_extension	lumbar_bending	lumbar_rotation	arm_flex_r	arm_add_r	arm_rot_r	elbow_flex_r	pro_sup_r	wrist_flex_r	wrist_dev_r	arm_flex_l	arm_add_l	arm_rot_l	elbow_flex_l	pro_sup_l	wrist_flex_l	wrist_dev_l
      7.50000000	     -7.24452660	     -2.92507704	     -0.21359673	      0.08546077	      1.15121037	     -0.24864040	      0.00000000	      0.50000000	      0.00000000	      0.25000000	     88.04486873	     -5.56888365	      1.67259281	    116.17516641	      2.02763916	      4.41667458	     -9.60167219	      0.00000000	      0.00000000	     39.03140245	    -13.31160608	    -15.40201841	     40.11568682	      0.70015082	     -2.29658930	     16.99772225	      0.00000000	      0.00000000	    -62.72190270	      3.70543039	      6.98171148	     89.74447535	    -22.08211211	     38.57398254	     52.72435591	     27.02837506	      0.00000000	      0.00000000	     89.43376855	     -9.28732026	     32.61120339	     38.63814036	     23.57365609	      0.00000000	      0.00000000
      7.50500000	     -7.20717481	     -2.90441732	     -0.26171865	      0.08537065	      1.15223548	     -0.24984285	      0.00000000	      0.50000000	      0.00000000	      0.25000000	     88.66238136	     -5.37001889	      1.83876873	    115.80047626	      2.02109959	      4.51203042	     -9.64084387	      0.00000000	      0.00000000	     38.62322694	    -13.32049091	    -15.42948469	     40.47552274	      0.70643114	     -2.49200580	     16.98124255	      0.00000000	      0.00000000	    -62.89466210	      3.99169852	      7.03352819	     89.75713544	    -22.01259278	     38.53918312	     52.75067018	     27.02221083	      0.00000000	      0.00000000	     89.40269244	     -9.32165522	     32.58004465	     38.63677078	     23.57454216	      0.00000000	      0.00000000
      7.51000000	     -7.46893605	     -3.22802546	     -0.74844878	      0.08526058	      1.15238847	     -0.24969100	      0.00000000	      0.50000000	      0.00000000	      0.25000000	     89.47431547	     -4.54284173	      1.58825778	    115.30903446	      2.01252231	      4.70605140	     -9.74268197	      0.00000000	      0.00000000	     38.90005391	    -14.24985350	    -15.96370570	     41.62384191	      0.72647309	     -3.31944964	     16.56646150	      0.00000000	      0.00000000	    -62.75760445	      4.16407610	      7.22877944	     89.75026340	    -21.11501547	     38.11847622	     53.03203392	     26.93464450	      0.00000000	      0.00000000	     89.44769462	     -9.93988208	     32.23916890	     38.48379238	     23.56597943	      0.00000000	      0.00000000
      7.51500000	     -7.69263156	     -3.41049100	     -0.92502744	      0.08517630	      1.15273264	     -0.25022671	      0.00000000	      0.50000000	      0.00000000	      0.25000000	     90.09362605	     -4.16469184	      1.43868484	    114.66762300	      2.00132757	      4.89673777	     -9.89699544	      0.00000000	      0.00000000	     39.21939111	    -14.74810033	    -15.99336500	     42.77818060	      0.74662010	     -3.73870493	     16.42228283	      0.00000000	      0.00000000	    -62.66331470	      4.48238748	      7.23274122	     89.75182998	    -20.25131038	     37.44107231	     52.89577364	     26.65596532	      0.00000000	      0.00000000	     89.43770193	    -10.41752288	     31.93792433	     38.58408730	     23.64384764	      0.00000000	      0.00000000
      7.52000000	     -7.80702671	     -3.46951568	     -1.17616235	      0.08507837	      1.15348156	     -0.25055536	      0.00000000	      0.50000000	      0.00000000	      0.25000000	     90.42591365	     -3.70185948	      1.43639078	    113.85440057	      1.98713416	      5.34687907	     -9.79319301	      0.00000000	      0.00000000	     39.41330184	    -15.17134867	    -16.16981554	     43.91522936	      0.76646534	     -4.39627921	     15.86598981	      0.00000000	      0.00000000	    -62.69381672	      4.61582780	      7.26551037	     89.75480406	    -19.84847929	     37.25026125	     52.98332858	     26.56690744	      0.00000000	      0.00000000	     89.46321891	    -10.72905497	     31.78181103	     38.64968382	     23.67738496	      0.00000000	      0.00000000
      7.52500000	     -8.03878211	     -3.56221122	     -1.27440377	      0.08481945	      1.15385312	     -0.25098051	      0.00000000	      0.50000000	      0.00000000	      0.25000000	     90.75564045	     -3.47065054	      1.32190473	    112.92023999	      1.97082998	      5.81371566	     -9.81262817	      0.00000000	      0.00000000	     39.99171886	    -15.55105802	    -16.02834008	     45.35014435	      0.79150934	     -4.97110953	     15.39195458	      0.00000000	      0.00000000	    -62.62979569	      4.87657046	      7.15902451	     89.75682661	    -19.03720884	     36.63033673	     52.91307722	     26.18702818	      0.00000000	      0.00000000	     89.45351243	    -11.28559938	     31.62653043	     38.95496270	     23.82899876	      0.00000000	      0.00000000
      7.53000000	     -8.15683645	     -3.57238356	     -1.46985417	      0.08460569	      1.15465121	     -0.25105608	      0.00000000	      0.50000000	      0.00000000	      0.25000000	     90.75583147	     -3.11970271	      1.29582096	    111.81224323	      1.95149179	      6.50625801	     -9.65310578	      0.00000000	      0.00000000	     40.44583177	    -15.95583045	    -16.04255724	     46.80247558	      0.81685730	     -5.74443902	     14.75303813	      0.00000000	      0.00000000	    -62.66492395	      4.94034549	      7.14229752	     89.75924458	    -18.75897355	     36.52879609	     53.08090654	     26.12589170	      0.00000000	      0.00000000	     89.47825838	    -11.62132940	     31.54320950	     39.00852371	     23.85683809	      0.00000000	      0.00000000
      7.53500000	     -8.18629353	     -3.41900654	     -1.60039602	      0.08439919	      1.15549029	     -0.25131073	      0.00000000	      0.50000000	      0.00000000	      0.25000000	     90.55070708	     -2.95414816	      1.39783001	    110.61044614	      1.93051647	      7.23232277	     -9.55401664	      0.00000000	      0.00000000	     40.87245014	    -16.15083152	    -16.02672251	     48.34618645	      0.84380013	     -6.47129127	     14.21354703	      0.00000000	      0.00000000	    -62.75152052	      4.90593294	      6.96754566	     89.76204484	    -18.62660395	     36.42519137	     53.19844783	     26.10008132	      0.00000000	      0.00000000	     89.51028889	    -11.80121464	     31.49045612	     39.06349735	     23.87292590	      0.00000000	      0.00000000
      7.54000000	     -8.25242266	     -3.23410932	     -1.71589340	      0.08426931	      1.15654150	     -0.25159833	      0.00000000	      0.50000000	      0.00000000	      0.25000000	     90.15989652	     -2.82095076	      1.51772889	    109.22634974	      1.90635943	      8.11147675	     -9.43912910	      0.00000000	      0.00000000	     41.40084886	    -16.27627264	    -15.87404550	     49.91662278	      0.87120942	     -7.30866942	     13.62601819	      0.00000000	      0.00000000	    -62.84870181	      4.83233106	      6.75655234	     89.76308326	    -18.49398390	     36.32568144	     53.32978390	     26.08691929	      0.00000000	      0.00000000	     89.53897214	    -11.97692136	     31.43792244	     39.13009159	     23.88753790	      0.00000000	      0.00000000
      7.54500000	     -8.76402381	     -3.51870446	     -1.73833837	      0.08372232	      1.15640431	     -0.25184975	      0.00000000	      0.50000000	      0.00000000	      0.25000000	     90.02089446	     -2.74245905	      1.17361001	    107.63849553	      1.87864615	      9.50314159	     -8.57908484	      0.00000000	      0.00000000	     42.89338004	    -16.79703092	    -15.25315716	     51.94400716	      0.90659395	     -8.44133053	     12.12025398	      0.00000000	      0.00000000	    -62.53011088	      5.33895617	      6.82014558	     89.76448706	    -17.67376140	     35.73984462	     53.51586295	     25.80614977	      0.00000000	      0.00000000	     89.49957497	    -12.90460774	     31.43753717	     39.72181276	     24.04924234	      0.00000000	      0.00000000
